# xmcd CD database file
#
# Track frame offsets:
#	150
#	15577
#	52762
#	91850
#	118825
#
# Disc length: 1854 seconds
#
# Revision: 0
# Processed by: cddbd v1.5.2PL0 Copyright (c) Steve Scherf et al.
# Submitted via: CDex 1.70beta2
#
DISCID=30073c05
DTITLE=Deep Forest - DEEP FOREST III Madazulu
DYEAR=1997
DGENRE=New Age
TTITLE0=Album Version
TTITLE1=BBE Harmonic Club Mix
TTITLE2=Deep Tribal Mix
TTITLE3=Cintura Mix
TTITLE4=Deep Tribal Radio Edit
EXTD=YEAR: 1997
EXTT0=
EXTT1=
EXTT2=
EXTT3=
EXTT4=
PLAYORDER=
